# xmcd
#
# Track frame offsets: 
#        150
#        40689
#        46357
#        73246
#        95989
#        99863
#        168178
#        172008
#        209591
#        244049
#        247339
#
# Disc length: 3835 seconds
#
# Revision: 7
# Processed by: cddbd v1.5.2PL0 Copyright (c) Steve Scherf et al.
# Submitted via: ExactAudioCopy v0.99pb4
#
DISCID=9f0ef90b
DTITLE=Albert King with Stevie Ray Vaughan - In Session (Live - Decemb
DTITLE=er 6, 1983)
DYEAR=1999
DGENRE=Blues
TTITLE0=Call It Stormy Monday
TTITLE1=Old Times
TTITLE2=Pride and Joy
TTITLE3=Ask Me No Questions
TTITLE4=Pep Talk
TTITLE5=Blues at Sunrise
TTITLE6=Turn It Over
TTITLE7=Overall Junction
TTITLE8=Match Box Blues
TTITLE9=Who is Stevie?
TTITLE10=Don't Lie To Me
EXTD=YEAR: 1999 (1983) ID3G:   0
EXTT0=
EXTT1=
EXTT2=
EXTT3=
EXTT4=
EXTT5=
EXTT6=
EXTT7=
EXTT8=
EXTT9=
EXTT10=
PLAYORDER=
